<svg height="70" viewBox="110 60 290 150" width="70" xmlns="http://www.w3.org/2000/svg"><path d="M278.829 14.191l23.258 47.125a25.457 25.457 0 0019.168 13.927L373.26 82.8c20.881 3.034 29.219 28.695 14.109 43.424l-37.631 36.681a25.46 25.46 0 00-7.322 22.534l8.884 51.795c1.56 9.099-1.74 17.252-7.51 22.724-7.419 7.035-29.428-4.887-29.428-4.887L256 223.421l-58.362 31.65s-21.297 12.075-28.727 5.528c-6.201-5.465-9.834-13.904-8.211-23.365l8.884-51.795a25.461 25.461 0 00-7.322-22.534l-37.631-36.681c-15.11-14.729-6.772-40.389 14.109-43.424l52.005-7.557a25.457 25.457 0 0019.168-13.927l23.257-47.125c9.339-18.921 36.321-18.921 45.659 0z" fill="#ffe27a"/><path d="M253.598 216.07l-84.678 44.518c7.43 6.548 18.538 8.835 28.718 3.483l46.515-24.454a25.458 25.458 0 0123.693 0l46.515 24.454c10.18 5.352 21.288 3.065 28.718-3.483l-84.678-44.518a5.163 5.163 0 00-4.803 0z" fill="#f9cf58"/></svg>