<svg xmlns="http://www.w3.org/2000/svg" width="184.7" height="86.6"><linearGradient id="a" gradientUnits="userSpaceOnUse" x1="23.785" y1="76.85" x2="207.786" y2="29.35"><stop offset="0" stop-color="#667eea"/><stop offset="1" stop-color="#6a11cb"/></linearGradient><path d="M3.4 51.5l37.8 33.3c1.3 1.2 3 1.8 4.6 1.8H139c1.6 0 3.3-.6 4.6-1.8l37.8-33.3c2.3-2 3.4-5.1 3.4-8.2H0c0 3.1 1.1 6.2 3.4 8.2z" fill="url(#a)"/><linearGradient id="b" gradientUnits="userSpaceOnUse" x1="194.03" y1="21.651" x2="9.333" y2="21.651"><stop offset="0" stop-color="#667eea"/><stop offset="1" stop-color="#6a11cb"/></linearGradient><path d="M3.4 35.1L41.2 1.8C42.5.6 44.2 0 45.8 0H139c1.6 0 3.3.6 4.6 1.8l37.8 33.3c2.3 2 3.4 5.1 3.4 8.2H0c0-3.1 1.1-6.2 3.4-8.2z" fill="url(#b)"/></svg>