<svg xmlns="http://www.w3.org/2000/svg" width="61.972" height="60.612"><path fill="#FFF" d="M38.37 23.882h-4.025v-4.025l1.962 2.063zm3.048-3.048h-4.025v-4.025l1.961 2.064z"/><path fill="#D14A44" d="M44.161 43.628H18.256V14.066h21.879l1.965 2.061 2.061 1.965z"/><path fill="#D89393" d="M44.161 18.092h-4.026v-4.026l1.962 2.064z"/><path fill="#000105" d="M32.656 22.396a.152.152 0 0 1-.152-.152c0-.714-.581-1.295-1.295-1.295s-1.295.581-1.295 1.295a.152.152 0 1 1-.304 0c0-.882.718-1.6 1.6-1.6.882 0 1.6.718 1.6 1.6a.155.155 0 0 1-.154.152z"/><circle fill="#000105" cx="27.599" cy="20.609" r=".81"/><circle fill="#000105" cx="34.818" cy="20.609" r=".81"/><g fill="#DB7C4A"><ellipse cx="27.297" cy="22.714" rx="1.473" ry=".622"/><ellipse cx="35.12" cy="22.714" rx="1.473" ry=".622"/></g><path d="M22.078 27.958h3.708v2.717h-3.708zm6.057 0h12.203v2.717H28.135zm-6.057 4.724h3.708v2.717h-3.708zm6.057 0h12.203v2.717H28.135zm-6.057 4.724h3.708v2.717h-3.708zm6.057 0h12.203v2.717H28.135z" fill="#FFF"/></svg>