<svg id="olimpiad" xmlns="http://www.w3.org/2000/svg" xmlns:xlink="http://www.w3.org/1999/xlink" viewBox="0 0 62 60.6">
    <style>
        .st1{fill:#f27e00}.st4{fill:#ffcc45}.st5{fill:#c86021}.st7{fill:#fda300}.st8{fill:#f59209}.st9{fill:#e06511}.st10{fill:#ba531b}.st11{fill:#fbd047}.st13{fill:#e87a02}.st17{fill:#d97a37}.st18{fill:#e09536}.st21{fill:#fff}
    </style>
    <path class="st1" d="M39.9 19.3h-3.2c-.4 0-.7-.3-.7-.8s.3-.8.7-.8h3.2c.4 0 .7.3.7.8s-.3.8-.7.8z"/>
    <path d="M38.6 30.7c-.1 0-.2 0-.3-.1-1.1-.6-1.9-2.2-1.2-4 .9-2.3 2.9-3.3 4.6-4.3 1.3-.7 2.5-1.3 3.2-2.4.4-.6 1.2-2.1-.2-3.7-.5-.5-1.8-.8-2.9 0-.9.6-1.1 1.6-.9 2.4.1.5.4 1.1 1 1.1.4 0 .7.4.7.8s-.4.7-.8.7c-1.1-.1-2-1-2.2-2.3-.3-1.6.3-3.2 1.6-4 1.7-1.1 3.7-.7 4.6.3 1.9 2 1.4 4.3.3 5.7-.9 1.3-2.3 2.1-3.7 2.8-1.7.9-3.2 1.7-3.9 3.5-.4 1 0 1.7.5 2 .4.2.5.6.3 1-.2.3-.4.5-.7.5z"
          fill="#fba300"/>
    <path class="st1" d="M25.4 19.3h-3.2c-.4 0-.7-.3-.7-.8s.3-.8.7-.8h3.2c.4 0 .7.3.7.8s-.3.8-.7.8z"/>
    <path transform="rotate(-89.903 31.063 36.55)" fill="#ff9800" d="M24.5 35.5h13.1v2.1H24.5z"/>
    <path class="st4" d="M30.8 43.1h-.5V30h.5z"/>
    <path class="st5" d="M30 34.1s.3-.3 1.1-.3 1 .3 1 .3v-.8H30v.8z"/>
    <circle cx="31.1" cy="31.5" r="2.2" fill="#f99109"/>
    <path class="st5"
          d="M31.1 29.3c-1.2 0-2.2 1-2.2 2.2v.2c.7-.1 1.5-.2 2.2-.2.7 0 1.5.1 2.2.2v-.2c0-1.2-1-2.2-2.2-2.2z"/>
    <path class="st7"
          d="M36.6 44.9c-.3-1-.7-2.5-1-3-1.3-2.6-3.1-3.5-4.5-3.5h-.2c-1.3 0-3.1.9-4.5 3.5-.3.5.1 2-.2 3h10.4z"/>
    <path class="st4"
          d="M29 44.9c.2-1 0-2.5.1-3 .6-1.8 1.5-2.8 2.2-3.2-.2-.1-.1-.2-.3-.2-.9.2-2.7 1.2-3.5 3.4-.2.5 0 2-.2 3H29z"/>
    <path class="st7"
          d="M38.1 16.2H24.3s-.2 7 .5 9.6c1.1 3.9 3.5 5.5 6.1 5.5h.6c2.7 0 5.1-1.7 6.2-5.5.5-2.7.4-9.6.4-9.6z"/>
    <path class="st8" d="M31.1 16.1H31v15.1h.4c2.7 0 5.1-1.7 6.2-5.5.7-2.6.5-9.6.5-9.6h-7z"/>
    <path class="st7"
          d="M30.8 30.5c-1.9 0-2.7-2.6-3-4-.3-1.3-.4-4.3-.4-6.9h7.3c0 2.6-.1 5.7-.4 6.9-.3 1.4-1.2 4-3 4h-.5z"/>
    <path class="st9"
          d="M37.3 17.7h-12v.2h10.3s.1 6-.5 8.2c-.7 2.5-1.5 4-3.2 4.5 2.1-.2 4-1.6 4.8-4.7.7-2.2.6-8.2.6-8.2z"/>
    <path class="st4"
          d="M27.4 25.8c-.6-2.2-.5-8.1-.5-8.2h-1.5s-.2 6 .5 8.2c.9 3.3 3.1 4.7 5.4 4.7H31.9c-2.3 0-3.6-1.4-4.5-4.7z"/>
    <path class="st10" d="M31.1 16.1h-6.9s-.1 2 0 4.7c1-.2 3.2-.4 6.8-.4 3.8 0 6.1.2 7.1.4.1-2.7 0-4.7 0-4.7h-7z"/>
    <path class="st8" d="M23.5 12.8h15.2v7.3H23.5z"/>
    <path class="st11" d="M24.4 12.8h1.7v7.3h-1.7zM26.7 12.8h1v7.3h-1z"/>
    <path class="st9" d="M36.2 12.8h1.7v7.3h-1.7z"/>
    <path class="st10" d="M23.5 15.1s.4-.4 7.2-.4 7.9.4 7.9.4V13H23.5v2.1z"/>
    <path fill="#fea402" d="M22.6 12.2h17v2.1h-17z"/>
    <path class="st8" d="M23.7 42.1h14.7v3.8H23.7z"/>
    <path class="st11" d="M24.6 42.1h4v3.8h-4z"/>
    <path class="st13" d="M31.9 42.1h5.6v3.8h-5.6z"/>
    <path fill="#ee8716" d="M28.6 37.4h4.8v1.8h-4.8z"/>
    <path class="st11" d="M24 12.2h1.7v2.1H24z"/>
    <path class="st13" d="M37.2 12.2h1.2v2.1h-1.2z"/>
    <path d="M25.1 26.6c-.9-2.3-2.9-3.3-4.6-4.3-1.3-.6-2.5-1.3-3.2-2.3-.4-.6-1.2-2.1.2-3.7.5-.5 1.8-.8 2.9 0 .9.6 1.1 1.6.9 2.4-.1.3-.2.5-.3.8-.2-.1-.4-.2-.6-.2-.6 0-1.1.5-1.1 1.1 0 .6.5 1.1 1 1.1h.1c1.1-.1 2-1 2.2-2.3.3-1.6-.3-3.2-1.6-4-1.7-1.1-3.7-.7-4.6.3-1.9 2-1.4 4.3-.3 5.7.9 1.3 2.3 2.1 3.7 2.8 1.7.9 3.2 1.7 3.9 3.5.4 1 0 1.7-.5 2-.4.2-.5.6-.3 1 .1.3.4.4.6.4.1 0 .2 0 .3-.1 1.3-.8 2.1-2.3 1.3-4.2z"
          fill="#fea200"/>
    <path class="st11" d="M22.6 12.2h17v.2h-17z"/>
    <g>
        <path class="st11"
              d="M16.5 21.2c-1-1.4-1.6-3.8.3-5.8.9-1 3-1.3 4.7-.2l.1.1c-.1-.1-.3-.3-.5-.4-1.7-1.1-3.7-.7-4.6.3-1.9 2-1.4 4.3-.3 5.7.4.5.9 1 1.4 1.4-.4-.3-.8-.7-1.1-1.1zM23.3 30.6c-.2-.4 0-.9.3-1 .5-.3.9-1 .5-2-.4-.9-1-1.6-1.7-2.2.6.5 1.1 1.1 1.4 1.9.4 1 0 1.7-.5 2-.4.2-.5.6-.3 1 .1.2.2.3.4.4 0-.1 0-.1-.1-.1z"/>
    </g>
    <g>
        <path class="st11"
              d="M39.5 19.1c-.2-1.5.4-3 1.6-3.8 1.7-1.1 3.7-.7 4.6.3.6.7 1 1.3 1.1 2-.1-.8-.5-1.6-1.2-2.4-.9-1-3-1.4-4.6-.3-1.3.8-1.9 2.4-1.6 4 .1.1.1.2.1.2z"/>
        <path class="st13" d="M38.9 29.2c-.3-.1-.5-.4-.6-.7 0 .5.3.9.7 1.1.2.1.3.2.3.4 0-.3-.1-.6-.4-.8z"/>
        <path class="st11" d="M41.8 19.8c-.5 0-.8-.5-.9-1v.2c.1.5.4 1.1 1 1.1.3 0 .5.2.6.4 0-.3-.3-.7-.7-.7z"/>
        <path class="st9"
              d="M37.2 27c.9-2.3 2.9-3.3 4.6-4.3 1.3-.7 2.5-1.3 3.2-2.4.3-.4.8-1.3.5-2.4.1.9-.3 1.7-.6 2.1-.7 1-1.9 1.7-3.2 2.4-1.7.9-3.7 2-4.6 4.3-.3.8-.3 1.6-.2 2.2-.1-.6 0-1.2.3-1.9z"/>
    </g>
    <path fill="#7f302e" d="M20.7 44.5h20.6v6.2H20.7z"/>
    <path class="st11" d="M23.7 42.1h14.7v.3H23.7z"/>
</svg>