<svg xmlns="http://www.w3.org/2000/svg" xmlns:xlink="http://www.w3.org/1999/xlink" width="218.013" height="198"
     viewBox="0 0 218.013 198" enable-background="new 0 0 218.0126038 198">
    <filter id="c">
        <feGaussianBlur stdDeviation="7"/>
    </filter>
    <g opacity=".5" filter="url(#c)">
        <path fill="#AA5D4D" d="M75.174 138.9h54.883v29.5H75.174z"/>
        <path fill="none" stroke="#4D435B" stroke-width="3" stroke-miterlimit="10"
              d="M75.174 138.9h54.883v29.5H75.174z"/>
        <path fill="#E8B951"
              d="M149.282 51.542v20.793s.078 8.133-5.24 10.716c-3.87 1.877-9.924 2.39-12.94 2.525l.057-6.973c2.33-.232 4.892-.63 6.827-1.315 4.67-1.654 4.603-6.867 4.603-6.867V57.103s.077-.406-.638-1.286c-.85-1.035-2.62-.928-2.62-.928h-7.99l.05-6.82h14.177s2.01-.164 2.987 1.45c.822 1.375.725 2.022.725 2.022z"/>
        <path fill="none" stroke="#4D435B" stroke-width="3" stroke-miterlimit="10"
              d="M149.282 51.542v20.793s.078 8.133-5.24 10.716c-3.87 1.877-9.924 2.39-12.94 2.525l.057-6.973c2.33-.232 4.892-.63 6.827-1.315 4.67-1.654 4.603-6.867 4.603-6.867V57.103s.077-.406-.638-1.286c-.85-1.035-2.62-.928-2.62-.928h-7.99l.05-6.82h14.177s2.01-.164 2.987 1.45c.822 1.375.725 2.022.725 2.022z"/>
        <path fill="#E8B951"
              d="M54.014 51.542v20.793s-.077 8.133 5.242 10.716c3.868 1.877 9.922 2.39 12.94 2.525l-.06-6.973c-2.33-.232-4.892-.63-6.826-1.315-4.67-1.654-4.604-6.867-4.604-6.867V57.103s-.077-.406.64-1.286c.85-1.035 2.62-.928 2.62-.928h7.988l-.05-6.82H57.73s-2.012-.164-2.99 1.45c-.82 1.375-.724 2.022-.724 2.022z"/>
        <path fill="none" stroke="#4D435B" stroke-width="3" stroke-miterlimit="10"
              d="M54.014 51.542v20.793s-.077 8.133 5.242 10.716c3.868 1.877 9.922 2.39 12.94 2.525l-.06-6.973c-2.33-.232-4.892-.63-6.826-1.315-4.67-1.654-4.604-6.867-4.604-6.867V57.103s-.077-.406.64-1.286c.85-1.035 2.62-.928 2.62-.928h7.988l-.05-6.82H57.73s-2.012-.164-2.99 1.45c-.82 1.375-.724 2.022-.724 2.022z"/>
        <path fill="#E8B951"
              d="M122.44 157.336v-7.193a4.182 4.182 0 0 1-4.17-4.17c0-.104.023-.2.03-.302H85.54c.007.102.03.2.03.303a4.182 4.182 0 0 1-4.17 4.17c-.02 0-.04-.005-.06-.006v7.205c.02 0 .04-.006.06-.006a4.183 4.183 0 0 1 4.17 4.17h32.7a4.183 4.183 0 0 1 4.17-4.17z"/>
        <path fill="#F8D64F"
              d="M72.152 34.937v44.487h.003c.074 14.432 13.248 26.112 29.493 26.112s29.42-11.68 29.493-26.112h.005V34.937H72.152z"/>
        <path fill="none" stroke="#4D435B" stroke-width="3" stroke-miterlimit="10"
              d="M72.152 34.937v44.487h.003c.074 14.432 13.248 26.112 29.493 26.112s29.42-11.68 29.493-26.112h.005V34.937H72.152z"/>
        <path fill="#E59C44" d="M101.648 104.287c16.245 0 29.42-11.68 29.493-26.112h.005V33.688h-28.53"/>
        <path fill="none" stroke="#4D435B" stroke-miterlimit="10"
              d="M101.648 104.287c16.245 0 29.42-11.68 29.493-26.112h.005V33.688h-28.53"/>
        <path fill="#E8B951" stroke="#4D435B" stroke-width="3" stroke-miterlimit="10"
              d="M134.288 36.146H70.943a3.637 3.637 0 0 1-3.627-3.626 3.637 3.637 0 0 1 3.627-3.627h63.345a3.637 3.637 0 0 1 3.626 3.627 3.637 3.637 0 0 1-3.626 3.626z"/>
        <path fill="#EFBB47"
              d="M79.72 37.567c-.604 14.297 0 17.627 0 27.083 0 21.912 9.01 39.637 21.518 39.637s21.64-17.764 21.64-39.676c0-9.455.24-13.444.24-27.043"/>
        <g fill="#E8B951" stroke="#4D435B" stroke-width="3" stroke-miterlimit="10">
            <path d="M95.906 105.536h13.42v25.145h-13.42z"/>
            <path d="M116.396 137.37H88.834a4.366 4.366 0 0 1-4.352-4.352 4.364 4.364 0 0 1 4.352-4.352h27.562a4.364 4.364 0 0 1 4.352 4.352 4.365 4.365 0 0 1-4.352 4.352z"/>
        </g>
    </g>
    <path fill="#AA5D4D" stroke="#4D435B" stroke-width="3" stroke-miterlimit="10"
          d="M79.894 132.643h56.75v30.5h-56.75z"/>
    <path d="M156.523 42.313v21.5s.08 8.41-5.42 11.08c-4 1.94-10.26 2.47-13.38 2.61l.06-7.21c2.41-.24 5.06-.65 7.06-1.36 4.83-1.71 4.76-7.1 4.76-7.1v-13.77s.08-.42-.66-1.33c-.88-1.07-2.71-.96-2.71-.96h-8.26l.05-7.05h14.66s2.08-.17 3.09 1.5c.85 1.42.75 2.09.75 2.09zm-98.509 0v21.5s-.08 8.41 5.42 11.08c4 1.94 10.26 2.47 13.38 2.61l-.06-7.21c-2.41-.24-5.06-.65-7.06-1.36-4.83-1.71-4.76-7.1-4.76-7.1v-13.77s-.08-.42.66-1.33c.88-1.07 2.71-.96 2.71-.96h8.26l-.05-7.05h-14.66s-2.08-.17-3.09 1.5c-.85 1.42-.75 2.09-.75 2.09zM101.33 93.476h13.876v30.667H101.33z"
          fill="#E8B951" stroke="#4D435B" stroke-width="3" stroke-miterlimit="10"/>
    <path fill="#E8B951"
          d="M128.77 151.705v-7.437a4.325 4.325 0 0 1-4.314-4.313c0-.106.024-.207.032-.312H90.612c.008.105.032.206.032.312a4.325 4.325 0 0 1-4.313 4.313c-.02 0-.04-.006-.06-.006v7.45c.02 0 .04-.007.06-.007a4.325 4.325 0 0 1 4.314 4.313h33.812a4.325 4.325 0 0 1 4.313-4.313z"/>
    <g stroke="#4D435B" stroke-miterlimit="10">
        <path fill="#F8D64F" stroke-width="3"
              d="M76.77 25.143v46h.002c.076 14.923 13.7 27 30.497 27s30.42-12.077 30.495-27h.004v-46h-61z"/>
        <path fill="#E59C44" d="M107.27 96.85c16.796 0 30.42-12.076 30.495-27h.004v-46h-29.5"/>
        <path fill="#E8B951" stroke-width="3"
              d="M141.02 26.393h-65.5a3.76 3.76 0 0 1-3.75-3.75 3.76 3.76 0 0 1 3.75-3.75h65.5c2.06 0 3.75 1.687 3.75 3.75 0 2.062-1.69 3.75-3.75 3.75z"/>
    </g>
    <path fill="#EFBB47"
          d="M84.595 27.862c-.625 14.783 0 18.226 0 28.004 0 22.658 9.317 40.985 22.25 40.985s22.375-18.366 22.375-41.024c0-9.778.25-13.902.25-27.964"/>
    <path fill="#E8B951" stroke="#4D435B" stroke-width="3" stroke-miterlimit="10"
          d="M122.52 131.06h-28.5c-2.476 0-4.5-2.025-4.5-4.5s2.024-4.5 4.5-4.5h28.5c2.474 0 4.5 2.025 4.5 4.5s-2.026 4.5-4.5 4.5z"/>
</svg>