<svg xmlns="http://www.w3.org/2000/svg" xmlns:xlink="http://www.w3.org/1999/xlink" width="210" height="198" viewBox="0 0 210 198"><filter id="a"><feGaussianBlur stdDeviation="4"/></filter><path fill="#E2A6A6" d="M124.377 165.61h-85v-97h71.792l6.446 6.76 6.76 6.447" filter="url(#a)"/><path fill="#E2A6A6" d="M96.027 26.358L38.92 83.464c-4.095 4.096-10.796 4.096-14.892 0-4.095-4.095-4.095-10.797 0-14.892l57.106-57.106c4.096-4.096 10.797-4.096 14.893 0 4.095 4.095 4.095 10.797 0 14.892zm27.616 31.954l-98.99 98.99c-4.097 4.097-10.798 4.097-14.894 0-4.096-4.094-4.096-10.796 0-14.89l98.99-98.993c4.096-4.096 10.798-4.096 14.893 0 4.095 4.095 4.095 10.796 0 14.892zm58.785.785l-98.99 98.99c-4.097 4.096-10.798 4.096-14.894 0-4.095-4.095-4.095-10.796 0-14.892l98.992-98.99c4.095-4.096 10.797-4.096 14.892 0 4.096 4.095 4.096 10.796 0 14.892z"/><path fill="#E2A6A6" d="M200.24 71.07l-50.858 50.857c-4.095 4.096-10.797 4.096-14.892 0-4.096-4.095-4.096-10.797 0-14.892l50.858-50.858c4.096-4.096 10.797-4.096 14.893 0 4.096 4.095 4.096 10.797 0 14.892zM48.827 182.09c-4.095 4.095-10.797 4.095-14.892 0-4.096-4.096-4.096-10.798 0-14.893 4.095-4.095 10.797-4.095 14.892 0 4.096 4.095 4.096 10.797 0 14.892zm98.761-147.723c-4.096 4.096-10.797 4.096-14.893 0-4.095-4.095-4.095-10.797 0-14.892 4.096-4.096 10.797-4.096 14.893 0 4.095 4.095 4.095 10.797 0 14.892z"/><path fill="#E5F2F5" d="M53.625 68.76c4.095-4.095 10.797-4.095 14.892 0 4.095 4.096 4.095 10.797 0 14.893l-29.38 29.38 69.614-69.614L95.7 56.47c-4.094 4.094-10.796 4.094-14.89 0-4.097-4.097-4.097-10.798 0-14.894"/><path fill="#E2A6A6" d="M98.49 172.82l-21.715 21.714c-4.095 4.096-10.797 4.096-14.892 0-4.095-4.095-4.095-10.797 0-14.892l21.715-21.715c4.096-4.096 10.797-4.096 14.893 0 4.096 4.095 4.096 10.797 0 14.892z"/><path fill="#FFF" d="M129.377 161.61h-85v-97h71.792l6.446 6.76 6.76 6.447"/><path fill="none" stroke="#DDA5A5" stroke-miterlimit="10" d="M129.377 161.61h-85v-97h71.792l6.446 6.76 6.76 6.447z"/><path fill="#FFF" d="M129.377 77.817H116.17V64.61l6.437 6.77"/><path fill="#E2A6A6" d="M134.377 157.61h-85v-97h71.792l6.446 6.76 6.76 6.447" filter="url(#a)"/><path fill="#FFF" d="M139.377 151.61h-85v-97h71.792l6.446 6.76 6.76 6.447"/><path fill="none" stroke="#DDA5A5" stroke-miterlimit="10" d="M139.377 151.61h-85v-97h71.792l6.446 6.76 6.76 6.447z"/><path fill="#FFF" d="M139.377 67.817H126.17V54.61l6.437 6.77"/><path fill="#E2A6A6" d="M144.377 147.61h-85v-97h71.792l6.446 6.76 6.76 6.447" filter="url(#a)"/><path fill="#D24A44" stroke="#874845" stroke-width="3" stroke-miterlimit="10" d="M148.377 142.61h-85v-97h71.792l6.446 6.76 6.76 6.447z"/><path fill="#D99393" stroke="#874845" stroke-miterlimit="10" d="M148.377 58.817H135.17V45.61l6.437 6.77z"/><path fill="none" stroke="#0D0E0F" stroke-linecap="round" stroke-linejoin="round" stroke-miterlimit="10" d="M101.127 72.442a4.75 4.75 0 0 1 9.5 0"/><circle fill="#0D0E0F" cx="94.034" cy="67.077" r="2.656"/><circle fill="#0D0E0F" cx="117.721" cy="67.077" r="2.656"/><g fill="#DC7C4A"><ellipse cx="93.044" cy="73.984" rx="4.833" ry="2.042"/><ellipse cx="118.711" cy="73.984" rx="4.833" ry="2.042"/></g><g fill="#FFF" stroke="#874845" stroke-miterlimit="10"><path d="M75.92 91.192h12.166v8.917H75.92zm19.874 0h40.042v8.917H95.794zm-19.874 15.5h12.166v8.917H75.92zm19.874 0h40.042v8.917H95.794zM75.92 122.192h12.166v8.917H75.92zm19.874 0h40.042v8.917H95.794z"/></g><path fill="#D34C54" d="M82.948 95.65l1.843-1.843-.967-.907-1.813 1.813-1.812-1.813-1.024.852 1.9 1.898-1.814 1.813.938.937 1.812-1.812 1.813 1.812 1.008-.867M82.948 111.15l1.843-1.843-.967-.907-1.813 1.813-1.812-1.813-1.024.852 1.9 1.898-1.814 1.813.938.937 1.812-1.812 1.813 1.812 1.008-.867M82.948 126.65l1.843-1.843-.967-.907-1.813 1.813-1.812-1.813-1.024.852 1.9 1.898-1.814 1.813.938.937 1.812-1.812 1.813 1.812 1.008-.867M14.063 65.36a1.13 1.13 0 0 1-1.125-1.126v-7.25c0-.62.507-1.125 1.125-1.125.62 0 1.125.505 1.125 1.124v7.25c0 .618-.506 1.125-1.125 1.125z"/><path fill="#D34C54" d="M9.313 60.61c0-.62.507-1.126 1.125-1.126h7.25c.62 0 1.125.506 1.125 1.125 0 .617-.506 1.124-1.125 1.124h-7.25a1.13 1.13 0 0 1-1.125-1.125z"/><path fill="#DC7C4A" d="M175.688 142.61a1.13 1.13 0 0 1-1.125-1.126v-7.25c0-.62.507-1.125 1.125-1.125.62 0 1.125.505 1.125 1.124v7.25c0 .618-.506 1.125-1.125 1.125z"/><image overflow="visible" width="42" height="10" xlink:href="C87411D6.png" transform="matrix(.24 0 0 .24 170.76 136.6)"/><path fill="#FFF" d="M164.078 67.304a1.129 1.129 0 0 1-1.125-1.125v-7.25c0-.62.507-1.126 1.125-1.126.62 0 1.125.506 1.125 1.125v7.25c0 .618-.506 1.124-1.125 1.124z"/><path fill="#FFF" d="M159.328 62.554c0-.62.507-1.125 1.125-1.125h7.25c.62 0 1.125.505 1.125 1.124 0 .62-.506 1.125-1.125 1.125h-7.25a1.13 1.13 0 0 1-1.125-1.126z"/><circle fill="#DC7C4A" cx="12.251" cy="118.546" r="2.938"/><circle fill="none" stroke="#D44F6C" stroke-miterlimit="10" cx="138.773" cy="171.706" r="2.938"/><circle fill="none" stroke="#D44F6C" stroke-miterlimit="10" cx="110.627" cy="11.421" r="2.938"/><circle fill="#E2A6A6" cx="194.584" cy="33.609" r="2.938"/></svg>