<svg version="1" xmlns="http://www.w3.org/2000/svg" xmlns:xlink="http://www.w3.org/1999/xlink" width="61.972" height="60.612" viewBox="0 0 61.972 60.612"><linearGradient id="a" gradientUnits="userSpaceOnUse" x1="9.739" y1="28.681" x2="52.234" y2="28.681"><stop offset=".005" stop-color="#bc3131"/><stop offset=".254" stop-color="#ae2d2d"/><stop offset=".688" stop-color="#9c2929"/><stop offset="1" stop-color="#962727"/></linearGradient><path fill="url(#a)" d="M9.738 18.289v20.783c0 1.409.742 2.715 1.952 3.437l17.247 10.28a4.002 4.002 0 0 0 4.097 0l17.247-10.28a4 4 0 0 0 1.952-3.437V18.289a4.004 4.004 0 0 0-1.952-3.437L33.034 4.573a4.002 4.002 0 0 0-4.097 0L11.69 14.853a4 4 0 0 0-1.952 3.436z"/><path fill="#FFF" d="M38.37 23.882h-4.025v-4.025l1.962 2.063zM41.418 20.834h-4.025v-4.025l1.961 2.064z"/><path fill="#D14A44" d="M44.161 43.628H18.256V14.066h21.879l1.965 2.061 2.061 1.965z"/><path fill="#D89393" d="M44.161 18.092h-4.026v-4.026l1.962 2.064z"/><path fill="#000105" d="M32.656 22.396a.152.152 0 0 1-.152-.152c0-.714-.581-1.295-1.295-1.295s-1.295.581-1.295 1.295a.152.152 0 1 1-.304 0c0-.882.718-1.6 1.6-1.6.882 0 1.6.718 1.6 1.6a.155.155 0 0 1-.154.152z"/><circle fill="#000105" cx="27.599" cy="20.609" r=".81"/><circle fill="#000105" cx="34.818" cy="20.609" r=".81"/><g fill="#DB7C4A"><ellipse cx="27.297" cy="22.714" rx="1.473" ry=".622"/><ellipse cx="35.12" cy="22.714" rx="1.473" ry=".622"/></g><g fill="#FFF"><path d="M22.078 27.958h3.708v2.717h-3.708zM28.135 27.958h12.203v2.717H28.135zM22.078 32.682h3.708v2.717h-3.708zM28.135 32.682h12.203v2.717H28.135z"/><g><path d="M22.078 37.406h3.708v2.717h-3.708zM28.135 37.406h12.203v2.717H28.135z"/></g></g><path fill="#D24C54" d="M24.22 29.317l.562-.562-.295-.276-.552.552-.553-.552-.312.259.579.579-.552.552.285.286.553-.552.552.552.307-.264zM24.22 34.041l.562-.562-.295-.276-.552.552-.553-.552-.312.259.579.579-.552.552.285.286.553-.552.552.552.307-.264zM24.22 38.765l.562-.562-.295-.276-.552.552-.553-.552-.312.259.579.579-.552.552.285.286.553-.553.552.553.307-.265z"/><path fill="#D97A37" d="M13.507 43.781v12.948H.534c-.4 0-.658-.457-.474-.841l2.576-5.366a.62.62 0 0 0 0-.535L.06 44.621c-.184-.383.074-.841.474-.841h12.973z"/><path fill="#E09536" d="M7.02 56.66l.088-9.377 6.399-3.502v12.948l-4.128-.219c-.6.364-2.359.893-2.359.15z"/><path fill="#D97A37" d="M48.465 43.781v12.948h12.973c.4 0 .658-.457.474-.841l-2.576-5.366a.62.62 0 0 1 0-.535l2.576-5.366c.184-.383-.074-.841-.474-.841H48.465z"/><path fill="#E09536" d="M54.866 57.313V47.284l-6.399-3.502V56.73l3.734 2.266c1.192.722 2.665-.207 2.665-1.683z"/><image overflow="visible" width="955" height="1102" xlink:href="34963B22.png" transform="translate(5.016 -1.263) scale(.0544)"/><linearGradient id="b" gradientUnits="userSpaceOnUse" x1="-20.134" y1="6.882" x2="35.806" y2="30.736"><stop offset="0" stop-color="#dda4a5"/><stop offset=".16" stop-color="#da8b8a"/><stop offset=".383" stop-color="#d66f6c"/><stop offset=".601" stop-color="#d35a56"/><stop offset=".81" stop-color="#d24e48"/><stop offset="1" stop-color="#d14a44"/></linearGradient><path fill="url(#b)" d="M50.713 38.347a3.681 3.681 0 0 1-1.797 3.162L32.87 51.073a3.683 3.683 0 0 1-3.77 0L13.056 41.51a3.681 3.681 0 0 1-1.797-3.162V19.014c0-1.297.683-2.498 1.797-3.162l16.046-9.564a3.683 3.683 0 0 1 3.77 0l16.046 9.564a3.681 3.681 0 0 1 1.797 3.162v19.333zm3.043-25.38L32.871.519a3.683 3.683 0 0 0-3.77 0L8.216 12.967A3.682 3.682 0 0 0 6.42 16.13v25.102c0 1.297.683 2.498 1.797 3.162l20.885 12.448a3.683 3.683 0 0 0 3.77 0l20.885-12.448a3.681 3.681 0 0 0 1.797-3.162V16.13a3.686 3.686 0 0 0-1.798-3.163z"/><path fill="#BC3131" d="M54.866 47.284H7.108v11.788c0 .851.69 1.541 1.541 1.541h44.677c.851 0 1.541-.69 1.541-1.541V47.284z"/><g fill="#FFF"><path d="M11.379 52.728c0-.071-.04-.111-.11-.111h-.218v-.758h.864c.257 0 .368.111.368.369v1.075h1.223v-1.075c0-.258.11-.369.368-.369h.864v.758h-.218c-.07 0-.111.04-.111.111v2.742h-.903v-1.414h-1.223v1.414h-.904v-2.742zM15.303 52.617h-.328v-.758h2.272c.258 0 .369.111.369.369v.696h-.809v-.196c0-.071-.04-.111-.11-.111h-.49v.656h1.03v.758h-1.03v.57c0 .071.04.111.111.111h.5c.07 0 .11-.04.11-.111v-.196h.809v.696c0 .258-.111.369-.369.369h-1.696c-.258 0-.369-.111-.369-.369v-2.484zM18.338 52.617h-.328v-.758h2.93c.257 0 .368.111.368.369v2.373c0 .071.041.111.111.111h.217v.758h-.863c-.258 0-.369-.111-.369-.369v-2.373c0-.071-.04-.111-.11-.111h-1.051v2.854h-.904v-2.854zM22.202 52.617h-.328v-.758h1.753c.701 0 1.177.516 1.177 1.242 0 .728-.476 1.253-1.177 1.253h-.521v1.116h-.904v-2.853zm1.243.979c.293 0 .435-.207.435-.495 0-.287-.142-.484-.419-.484h-.354v.979h.338zM24.707 54.713h.096c.081 0 .106-.025.137-.111l.984-2.742h.939l.985 2.742c.03.086.056.111.136.111h.097v.758H27.5c-.253 0-.354-.076-.425-.293l-.156-.465h-1.051l-.156.465c-.07.217-.172.293-.424.293h-.581v-.758zm2.021-.733l-.183-.601a8.363 8.363 0 0 1-.146-.596h-.01s-.075.368-.146.596l-.182.601h.667zM28.545 52.617h-.328v-.758h1.651c.723 0 1.228.323 1.228.944a.867.867 0 0 1-.419.768v.011c.414.126.565.495.565.813 0 .788-.656 1.076-1.374 1.076h-.954c-.258 0-.369-.111-.369-.369v-2.485zm1.349.642c.212 0 .309-.162.309-.334 0-.166-.097-.308-.324-.308h-.449v.642h.464zm-.354 1.454h.43c.242 0 .358-.177.358-.379s-.111-.368-.354-.368h-.546v.636c.001.071.042.111.112.111zM31.833 52.728c0-.071-.04-.111-.11-.111h-.218v-.758h.864c.257 0 .368.111.368.369v1.232c0 .227-.04.601-.04.601h.01s.197-.369.333-.601l.945-1.602h.908V54.6c0 .071.041.111.111.111h.218v.758h-.864c-.258 0-.368-.111-.368-.369v-1.237c0-.227.04-.621.04-.621h-.01s-.182.384-.323.621l-.95 1.606h-.914v-2.741zM35.394 54.708c.429-.056.722-.369.722-1.662v-.429h-.333v-.758h2.409c.258 0 .368.111.368.369v2.373c0 .071.041.111.111.111h.218v.758h-.864c-.258 0-.368-.111-.368-.369v-2.373c0-.071-.041-.111-.111-.111h-.576v.439c0 1.763-.561 2.454-1.575 2.454v-.802zM39.453 52.728c0-.071-.04-.111-.111-.111h-.217v-.758h.863c.258 0 .369.111.369.369v.752h.556c.616 0 1.228.293 1.228 1.188 0 .954-.667 1.303-1.425 1.303h-.894c-.258 0-.369-.111-.369-.369v-2.374zm1.016 1.985h.333c.242 0 .409-.202.409-.53 0-.277-.162-.444-.404-.444h-.449v.863c0 .071.04.111.111.111zM42.62 52.728c0-.071-.04-.111-.11-.111h-.218v-.758h.864c.257 0 .368.111.368.369v1.075h1.223v-1.075c0-.258.11-.369.368-.369h.864v.758h-.218c-.07 0-.111.04-.111.111v2.742h-.903v-1.414h-1.223v1.414h-.904v-2.742zM48.11 51.799c1.092 0 1.89.809 1.89 1.844 0 1.061-.798 1.889-1.89 1.889-1.091 0-1.889-.828-1.889-1.889 0-1.036.798-1.844 1.889-1.844zm0 2.899c.525 0 .95-.455.95-1.056 0-.576-.425-1.011-.95-1.011-.524 0-.949.435-.949 1.011-.001.601.424 1.056.949 1.056zM50.439 51.859h.909l-.081 2.495h-.747l-.081-2.495zm.055 2.854h.798v.758h-.798v-.758z"/></g></svg>