<svg id="Capa_1" xmlns="http://www.w3.org/2000/svg" xmlns:xlink="http://www.w3.org/1999/xlink" width="65" height="65" viewBox="0 0 65 65"><style>.st2{fill:#fff}.st5{fill:#000105}.st6{fill:#db7c4a}.st7{fill:#d24c54}.st8{fill:#d97a37}.st9{fill:#e09536}</style><image width="950" height="121" xlink:href="95E45AB1.png" transform="matrix(.04603 0 0 .04603 12.026 59.43)" overflow="visible" opacity=".2"/><linearGradient id="SVGID_1_" gradientUnits="userSpaceOnUse" x1="14.506" y1="25.352" x2="50.494" y2="25.352"><stop offset=".005" stop-color="#bc3131"/><stop offset=".254" stop-color="#ae2d2d"/><stop offset=".688" stop-color="#9c2929"/><stop offset="1" stop-color="#962727"/></linearGradient><path d="M14.5 16.6v17.6c0 1.2.6 2.3 1.7 2.9l14.6 8.7c1.1.6 2.4.6 3.5 0l14.6-8.7c1-.6 1.7-1.7 1.7-2.9V16.6c0-1.2-.6-2.3-1.7-2.9L34.2 4.9c-1.1-.6-2.4-.6-3.5 0l-14.6 8.7c-1 .7-1.6 1.8-1.6 3z" fill="url(#SVGID_1_)"/><path class="st2" d="M38.8 21.3h-3.5v-3.4l1.7 1.7zM41.3 18.7h-3.4v-3.4l1.7 1.7z"/><path fill="#d14a44" d="M43.7 38h-22V13h18.5l1.7 1.7 1.8 1.7z"/><path fill="#d89393" d="M43.7 16.4h-3.5V13l1.7 1.7z"/><path class="st5" d="M33.9 20c-.1 0-.1-.1-.1-.1 0-.6-.5-1.1-1.1-1.1-.6 0-1.1.5-1.1 1.1 0 .1-.1.1-.1.1-.1 0-.1-.1-.1-.1 0-.7.6-1.4 1.4-1.4.7 0 1.4.6 1.4 1.4-.2.1-.2.1-.3.1z"/><circle class="st5" cx="29.6" cy="18.5" r=".7"/><circle class="st5" cx="35.7" cy="18.5" r=".7"/><ellipse class="st6" cx="29.4" cy="20.3" rx="1.2" ry=".5"/><ellipse class="st6" cx="36" cy="20.3" rx="1.2" ry=".5"/><path class="st2" d="M25 24.7h3.1V27H25zM30.1 24.7h10.3V27H30.1zM25 28.7h3.1V31H25zM30.1 28.7h10.3V31H30.1z"/><g><path class="st2" d="M25 32.7h3.1V35H25zM30.1 32.7h10.3V35H30.1z"/></g><g><path class="st7" d="M26.8 25.9l.4-.5-.2-.2-.5.4-.4-.4-.3.2.5.5-.5.5.3.2.4-.5.5.5.3-.2z"/></g><g><path class="st7" d="M26.8 29.9l.4-.5-.2-.2-.5.4-.4-.4-.3.2.5.5-.5.5.3.2.4-.5.5.5.3-.2z"/></g><g><path class="st7" d="M26.8 33.9l.4-.5-.2-.2-.5.4-.4-.4-.3.2.5.5-.5.5.3.2.4-.5.5.5.3-.2z"/></g><path class="st8" d="M17.7 38.1v11h-11c-.3 0-.6-.4-.4-.7l2.2-4.5c.1-.1.1-.3 0-.5l-2.2-4.5c-.2-.3.1-.7.4-.7h11z"/><path class="st9" d="M12.2 49l.1-7.9 5.4-3v11l-3.5-.2c-.5.3-2 .8-2 .1z"/><path class="st8" d="M47.3 38.1v11h11c.3 0 .6-.4.4-.7l-2.2-4.5c-.1-.1-.1-.3 0-.5l2.2-4.5c.2-.3-.1-.7-.4-.7h-11z"/><path class="st9" d="M52.7 49.6v-8.5l-5.4-3v11l3.2 1.9c1 .6 2.2-.2 2.2-1.4z"/><image width="955" height="1102" xlink:href="95E45AB3.png" transform="matrix(.04603 0 0 .04603 10.507 0)" overflow="visible"/><linearGradient id="SVGID_2_" gradientUnits="userSpaceOnUse" x1="-10.792" y1="6.892" x2="36.581" y2="27.092"><stop offset="0" stop-color="#dda4a5"/><stop offset=".16" stop-color="#da8b8a"/><stop offset=".383" stop-color="#d66f6c"/><stop offset=".601" stop-color="#d35a56"/><stop offset=".81" stop-color="#d24e48"/><stop offset="1" stop-color="#d14a44"/></linearGradient><path d="M49.2 33.5c0 1.1-.6 2.1-1.5 2.7l-13.6 8.1c-1 .6-2.2.6-3.2 0l-13.6-8.1c-.9-.6-1.5-1.6-1.5-2.7V17.2c0-1.1.6-2.1 1.5-2.7l13.6-8.1c1-.6 2.2-.6 3.2 0l13.6 8.1c.9.6 1.5 1.6 1.5 2.7v16.3zM51.8 12L34.1 1.5c-1-.6-2.2-.6-3.2 0L13.2 12c-.9.6-1.5 1.6-1.5 2.7V36c0 1.1.6 2.1 1.5 2.7l17.7 10.5c1 .6 2.2.6 3.2 0l17.7-10.5c.9-.6 1.5-1.6 1.5-2.7V14.7c0-1.1-.6-2.1-1.5-2.7z" fill="url(#SVGID_2_)"/><g><path d="M13.6 52.4h37.8c.7 0 1.3-.6 1.3-1.3v-10H12.3v10c0 .7.6 1.3 1.3 1.3" fill="#bc3131"/></g><g><path class="st2" d="M15.9 45.7s0-.1 0 0l-.3-.1V45h.7c.2 0 .3.1.3.3v.9h1v-.9c0-.2.1-.3.3-.3h.7v.6h-.2c-.1 0-.1 0-.1.1V48h-.8v-1.2h-1V48h-.8v-2.3zM19.2 45.6h-.3V45h1.9c.2 0 .3.1.3.3v.6h-.7v-.2c0-.1 0-.1-.1-.1H20v.6h.9v.6H20v.5c0 .1 0 .1.1.1h.4c.1 0 .1 0 .1-.1v-.2h.7v.6c0 .2-.1.3-.3.3h-1.4c-.2 0-.3-.1-.3-.3v-2.1zM21.8 45.6h-.3V45H24c.2 0 .3.1.3.3v2c0 .1 0 .1.1.1h.2v.6h-.7c-.2 0-.3-.1-.3-.3v-2c0-.1 0-.1-.1-.1h-.9V48h-.8v-2.4zM25.1 45.6h-.3V45h1.5c.6 0 1 .4 1 1.1 0 .6-.4 1.1-1 1.1h-.4v.8h-.8v-2.4zm1 .9c.2 0 .4-.2.4-.4s-.1-.4-.4-.4h-.3v.8h.3zM27.2 47.4c.1 0 .2 0 .2-.1l.8-2.3h.8l.8 2.3c0 .1 0 .1.1.1h.1v.6h-.5c-.2 0-.3-.1-.4-.2l-.1-.4h-.9l-.1.4c0 .2-.1.2-.3.2h-.5v-.6zm1.7-.6l-.2-.5c-.1-.2-.1-.5-.1-.5s-.1.3-.1.5l-.2.5h.6zM30.4 45.6h-.3V45h1.4c.6 0 1 .3 1 .8 0 .3-.2.6-.4.7.4.1.5.4.5.7 0 .7-.6.9-1.2.9h-.8c-.2 0-.3-.1-.3-.3v-2.2zm1.2.6c.2 0 .3-.1.3-.3 0-.1-.1-.3-.3-.3h-.4v.5h.4zm-.3 1.2h.4c.2 0 .3-.1.3-.3 0-.2-.1-.3-.3-.3h-.5l.1.6c-.1 0-.1 0 0 0zM33.2 45.7s0-.1 0 0l-.3-.1V45h.7c.2 0 .3.1.3.3v1.5s.2-.3.3-.5L35 45h.8v2.3c0 .1 0 .1.1.1h.2v.6h-.7c-.2 0-.3-.1-.3-.3v-1-.5s-.2.3-.3.5L34 48h-.8v-2.3zM36.2 47.4c.4 0 .6-.3.6-1.4v-.4h-.3V45h2c.2 0 .3.1.3.3v2c0 .1 0 .1.1.1h.2v.6h-.7c-.2 0-.3-.1-.3-.3v-2c0-.1 0-.1-.1-.1h-.5v.4c0 1.5-.5 2.1-1.3 2.1v-.7zM39.7 45.7s-.1-.1 0 0l-.3-.1V45h.7c.2 0 .3.1.3.3v.6h.5c.5 0 1 .2 1 1s-.6 1.1-1.2 1.1H40c-.2 0-.3-.1-.3-.3v-2zm.8 1.7h.3c.2 0 .3-.2.3-.4s-.1-.4-.3-.4h-.4l.1.8c-.1 0 0 0 0 0zM42.4 45.7s-.1-.1 0 0l-.3-.1V45h.7c.2 0 .3.1.3.3v.9h1v-.9c0-.2.1-.3.3-.3h.7v.6H45c-.1 0-.1 0-.1.1V48h-.8v-1.2h-1V48h-.8v-2.3zM47 44.9c.9 0 1.6.7 1.6 1.6 0 .9-.7 1.6-1.6 1.6-.9 0-1.6-.7-1.6-1.6 0-.9.7-1.6 1.6-1.6zm0 2.5c.4 0 .8-.4.8-.9s-.4-.9-.8-.9-.8.4-.8.9.4.9.8.9zM49 45h.8l-.1 2.1H49V45zm0 2.4h.7v.6H49v-.6z"/></g></svg>