<svg id="Capa_1" xmlns="http://www.w3.org/2000/svg" xmlns:xlink="http://www.w3.org/1999/xlink" viewBox="0 0 62 60.6"><style>.st1{fill:#f27e00}.st4{fill:#ffcc45}.st5{fill:#c86021}.st7{fill:#fda300}.st8{fill:#f59209}.st9{fill:#e06511}.st10{fill:#ba531b}.st11{fill:#fbd047}.st13{fill:#e87a02}.st17{fill:#d97a37}.st18{fill:#e09536}.st21{fill:#fff}</style><linearGradient id="SVGID_1_" gradientUnits="userSpaceOnUse" x1="9.774" y1="758.699" x2="52.197" y2="758.699" gradientTransform="translate(0 -730)"><stop offset=".005" stop-color="#bc3131"/><stop offset=".254" stop-color="#ae2d2d"/><stop offset=".688" stop-color="#9c2929"/><stop offset="1" stop-color="#962727"/></linearGradient><path d="M9.8 18.3V39c0 1.4.7 2.7 2 3.5L29 52.7c1.3.8 2.9.8 4.1 0l17.2-10.2c1.2-.7 2-2 2-3.5V18.3c0-1.4-.7-2.7-2-3.5L33 4.6c-1.3-.8-2.9-.8-4.1 0L11.7 14.9c-1.2.7-1.9 2-1.9 3.4z" fill="url(#SVGID_1_)"/><path class="st1" d="M39.9 19.3h-3.2c-.4 0-.7-.3-.7-.8s.3-.8.7-.8h3.2c.4 0 .7.3.7.8s-.3.8-.7.8z"/><path d="M38.6 30.7c-.1 0-.2 0-.3-.1-1.1-.6-1.9-2.2-1.2-4 .9-2.3 2.9-3.3 4.6-4.3 1.3-.7 2.5-1.3 3.2-2.4.4-.6 1.2-2.1-.2-3.7-.5-.5-1.8-.8-2.9 0-.9.6-1.1 1.6-.9 2.4.1.5.4 1.1 1 1.1.4 0 .7.4.7.8s-.4.7-.8.7c-1.1-.1-2-1-2.2-2.3-.3-1.6.3-3.2 1.6-4 1.7-1.1 3.7-.7 4.6.3 1.9 2 1.4 4.3.3 5.7-.9 1.3-2.3 2.1-3.7 2.8-1.7.9-3.2 1.7-3.9 3.5-.4 1 0 1.7.5 2 .4.2.5.6.3 1-.2.3-.4.5-.7.5z" fill="#fba300"/><path class="st1" d="M25.4 19.3h-3.2c-.4 0-.7-.3-.7-.8s.3-.8.7-.8h3.2c.4 0 .7.3.7.8s-.3.8-.7.8z"/><path transform="rotate(-89.903 31.063 36.55)" fill="#ff9800" d="M24.5 35.5h13.1v2.1H24.5z"/><path class="st4" d="M30.8 43.1h-.5V30h.5z"/><path class="st5" d="M30 34.1s.3-.3 1.1-.3 1 .3 1 .3v-.8H30v.8z"/><circle cx="31.1" cy="31.5" r="2.2" fill="#f99109"/><path class="st5" d="M31.1 29.3c-1.2 0-2.2 1-2.2 2.2v.2c.7-.1 1.5-.2 2.2-.2.7 0 1.5.1 2.2.2v-.2c0-1.2-1-2.2-2.2-2.2z"/><path class="st7" d="M36.6 44.9c-.3-1-.7-2.5-1-3-1.3-2.6-3.1-3.5-4.5-3.5h-.2c-1.3 0-3.1.9-4.5 3.5-.3.5.1 2-.2 3h10.4z"/><path class="st4" d="M29 44.9c.2-1 0-2.5.1-3 .6-1.8 1.5-2.8 2.2-3.2-.2-.1-.1-.2-.3-.2-.9.2-2.7 1.2-3.5 3.4-.2.5 0 2-.2 3H29z"/><path class="st7" d="M38.1 16.2H24.3s-.2 7 .5 9.6c1.1 3.9 3.5 5.5 6.1 5.5h.6c2.7 0 5.1-1.7 6.2-5.5.5-2.7.4-9.6.4-9.6z"/><path class="st8" d="M31.1 16.1H31v15.1h.4c2.7 0 5.1-1.7 6.2-5.5.7-2.6.5-9.6.5-9.6h-7z"/><path class="st7" d="M30.8 30.5c-1.9 0-2.7-2.6-3-4-.3-1.3-.4-4.3-.4-6.9h7.3c0 2.6-.1 5.7-.4 6.9-.3 1.4-1.2 4-3 4h-.5z"/><path class="st9" d="M37.3 17.7h-12v.2h10.3s.1 6-.5 8.2c-.7 2.5-1.5 4-3.2 4.5 2.1-.2 4-1.6 4.8-4.7.7-2.2.6-8.2.6-8.2z"/><path class="st4" d="M27.4 25.8c-.6-2.2-.5-8.1-.5-8.2h-1.5s-.2 6 .5 8.2c.9 3.3 3.1 4.7 5.4 4.7H31.9c-2.3 0-3.6-1.4-4.5-4.7z"/><path class="st10" d="M31.1 16.1h-6.9s-.1 2 0 4.7c1-.2 3.2-.4 6.8-.4 3.8 0 6.1.2 7.1.4.1-2.7 0-4.7 0-4.7h-7z"/><path class="st8" d="M23.5 12.8h15.2v7.3H23.5z"/><path class="st11" d="M24.4 12.8h1.7v7.3h-1.7zM26.7 12.8h1v7.3h-1z"/><path class="st9" d="M36.2 12.8h1.7v7.3h-1.7z"/><path class="st10" d="M23.5 15.1s.4-.4 7.2-.4 7.9.4 7.9.4V13H23.5v2.1z"/><path fill="#fea402" d="M22.6 12.2h17v2.1h-17z"/><path class="st8" d="M23.7 42.1h14.7v3.8H23.7z"/><path class="st11" d="M24.6 42.1h4v3.8h-4z"/><path class="st13" d="M31.9 42.1h5.6v3.8h-5.6z"/><path fill="#ee8716" d="M28.6 37.4h4.8v1.8h-4.8z"/><path class="st11" d="M24 12.2h1.7v2.1H24z"/><path class="st13" d="M37.2 12.2h1.2v2.1h-1.2z"/><path d="M25.1 26.6c-.9-2.3-2.9-3.3-4.6-4.3-1.3-.6-2.5-1.3-3.2-2.3-.4-.6-1.2-2.1.2-3.7.5-.5 1.8-.8 2.9 0 .9.6 1.1 1.6.9 2.4-.1.3-.2.5-.3.8-.2-.1-.4-.2-.6-.2-.6 0-1.1.5-1.1 1.1 0 .6.5 1.1 1 1.1h.1c1.1-.1 2-1 2.2-2.3.3-1.6-.3-3.2-1.6-4-1.7-1.1-3.7-.7-4.6.3-1.9 2-1.4 4.3-.3 5.7.9 1.3 2.3 2.1 3.7 2.8 1.7.9 3.2 1.7 3.9 3.5.4 1 0 1.7-.5 2-.4.2-.5.6-.3 1 .1.3.4.4.6.4.1 0 .2 0 .3-.1 1.3-.8 2.1-2.3 1.3-4.2z" fill="#fea200"/><path class="st11" d="M22.6 12.2h17v.2h-17z"/><g><path class="st11" d="M16.5 21.2c-1-1.4-1.6-3.8.3-5.8.9-1 3-1.3 4.7-.2l.1.1c-.1-.1-.3-.3-.5-.4-1.7-1.1-3.7-.7-4.6.3-1.9 2-1.4 4.3-.3 5.7.4.5.9 1 1.4 1.4-.4-.3-.8-.7-1.1-1.1zM23.3 30.6c-.2-.4 0-.9.3-1 .5-.3.9-1 .5-2-.4-.9-1-1.6-1.7-2.2.6.5 1.1 1.1 1.4 1.9.4 1 0 1.7-.5 2-.4.2-.5.6-.3 1 .1.2.2.3.4.4 0-.1 0-.1-.1-.1z"/></g><g><path class="st11" d="M39.5 19.1c-.2-1.5.4-3 1.6-3.8 1.7-1.1 3.7-.7 4.6.3.6.7 1 1.3 1.1 2-.1-.8-.5-1.6-1.2-2.4-.9-1-3-1.4-4.6-.3-1.3.8-1.9 2.4-1.6 4 .1.1.1.2.1.2z"/><path class="st13" d="M38.9 29.2c-.3-.1-.5-.4-.6-.7 0 .5.3.9.7 1.1.2.1.3.2.3.4 0-.3-.1-.6-.4-.8z"/><path class="st11" d="M41.8 19.8c-.5 0-.8-.5-.9-1v.2c.1.5.4 1.1 1 1.1.3 0 .5.2.6.4 0-.3-.3-.7-.7-.7z"/><path class="st9" d="M37.2 27c.9-2.3 2.9-3.3 4.6-4.3 1.3-.7 2.5-1.3 3.2-2.4.3-.4.8-1.3.5-2.4.1.9-.3 1.7-.6 2.1-.7 1-1.9 1.7-3.2 2.4-1.7.9-3.7 2-4.6 4.3-.3.8-.3 1.6-.2 2.2-.1-.6 0-1.2.3-1.9z"/></g><path fill="#7f302e" d="M20.7 44.5h20.6v6.2H20.7z"/><path class="st11" d="M23.7 42.1h14.7v.3H23.7z"/><path class="st17" d="M13.5 43.8v12.9H.5c-.4 0-.7-.5-.5-.8l2.6-5.4c.1-.2.1-.4 0-.5L0 44.6c-.2-.4.1-.8.5-.8h13z"/><path class="st18" d="M7.1 56.6l.1-9.4 6.4-3.5v12.9l-4.1-.2c-.7.4-2.4 1-2.4.2z"/><path class="st17" d="M48.4 43.8v12.9h13c.4 0 .7-.5.5-.8l-2.6-5.4c-.1-.2-.1-.4 0-.5l2.6-5.4c.2-.4-.1-.8-.5-.8h-13z"/><path class="st18" d="M54.8 57.3v-10l-6.4-3.5v12.9l3.7 2.3c1.3.7 2.7-.2 2.7-1.7z"/><image width="968" height="1114" xlink:href="C28F5950.png" transform="translate(5.015 -1.196) scale(.0536)" overflow="visible"/><linearGradient id="SVGID_2_" gradientUnits="userSpaceOnUse" x1="-2.139" y1="744.573" x2="53.706" y2="768.387" gradientTransform="translate(0 -730)"><stop offset="0" stop-color="#dda4a5"/><stop offset=".16" stop-color="#da8b8a"/><stop offset=".383" stop-color="#d66f6c"/><stop offset=".601" stop-color="#d35a56"/><stop offset=".81" stop-color="#d24e48"/><stop offset="1" stop-color="#d14a44"/></linearGradient><path d="M50.7 38.3c0 1.3-.7 2.5-1.8 3.2l-16 9.5c-1.2.7-2.6.7-3.8 0l-16-9.5c-1.1-.7-1.8-1.9-1.8-3.2V19c0-1.3.7-2.5 1.8-3.2l16-9.5c1.2-.7 2.6-.7 3.8 0l16 9.5c1.1.7 1.8 1.9 1.8 3.2v19.3zm3-25.3L32.9.6a3.7 3.7 0 0 0-3.8 0L8.3 13c-1.1.7-1.8 1.9-1.8 3.2v25.1c0 1.3.7 2.5 1.8 3.2l20.8 12.4c1.2.7 2.6.7 3.8 0l20.9-12.4c1.1-.7 1.8-1.9 1.8-3.2V16.2c-.1-1.3-.8-2.5-1.9-3.2z" fill="url(#SVGID_2_)"/><g><path d="M54.8 47.3H7.1V59c0 .9.7 1.6 1.6 1.6h44.6c.9 0 1.6-.7 1.6-1.6-.1 0-.1-11.7-.1-11.7z" fill="orange"/></g><g><path class="st21" d="M11.5 52.6h-.4v-.9h3.5c.3 0 .4.1.4.4V55c0 .1 0 .1.1.1h.3v.9h-1c-.3 0-.4-.1-.4-.4v-2.9c0-.1 0-.1-.1-.1h-1.3V56h-1.1v-3.4zM16.2 52.6h-.4v-.9h2.1c.9 0 1.4.6 1.4 1.5s-.6 1.5-1.4 1.5h-.6V56h-1.1v-3.4zm1.5 1.2c.4 0 .5-.3.5-.6s-.2-.6-.5-.6h-.4v1.2h.4zM19.2 55.1h.1c.1 0 .1 0 .2-.1l1.2-3.3h1.1L23 55c0 .1.1.1.2.1h.1v.9h-.7c-.3 0-.4-.1-.5-.4l-.2-.6h-1.3l-.2.6c0 .4-.2.4-.5.4h-.7v-.9zm2.5-.9l-.2-.7c-.1-.3-.2-.7-.2-.7s-.1.4-.2.7l-.2.7h.8zM23.9 52.6h-.4v-.9h2c.9 0 1.5.4 1.5 1.1 0 .5-.3.8-.5.9.5.2.7.6.7 1 0 1-.8 1.3-1.7 1.3h-1.2c-.3 0-.4-.1-.4-.4v-3zm1.6.8c.3 0 .4-.2.4-.4s-.1-.4-.4-.4H25v.8h.5zm-.4 1.7h.5c.3 0 .4-.2.4-.5 0-.2-.1-.4-.4-.4H25v.8c-.1.1 0 .1.1.1zM27.9 52.7c0-.1 0-.1-.1-.1h-.3v-.9h1c.3 0 .4.1.4.4v2.2s.2-.4.4-.7l1.1-1.9h1.1V55c0 .1 0 .1.1.1h.4v.9h-1c-.3 0-.4-.1-.4-.4v-1.5-.8s-.2.5-.4.8L29 56h-1.1v-3.3zM32.2 55.1c.5-.1.9-.4.9-2v-.5h-.4v-.9h2.9c.3 0 .4.1.4.4V55c0 .1 0 .1.1.1h.3v.9h-1c-.3 0-.4-.1-.4-.4v-2.9c0-.1 0-.1-.1-.1h-.7v.5c0 2.1-.7 3-1.9 3v-1zM37.1 52.7c0-.1 0-.1-.1-.1h-.3v-.9h1c.3 0 .4.1.4.4v.9h.7c.7 0 1.5.4 1.5 1.4 0 1.2-.8 1.6-1.7 1.6h-1.1c-.3 0-.4-.1-.4-.4v-2.9zm1.2 2.4h.4c.3 0 .5-.2.5-.6 0-.3-.2-.5-.5-.5h-.5v1c0 .1 0 .1.1.1zM40.9 52.7c0-.1 0-.1-.1-.1h-.3v-.9h1c.3 0 .4.1.4.4v1.3h1.5v-1.3c0-.3.1-.4.4-.4h1v.9h-.3c-.1 0-.1 0-.1.1V56h-1.1v-1.7H42V56h-1.1v-3.3zM47.6 51.6c1.3 0 2.3 1 2.3 2.2 0 1.3-1 2.3-2.3 2.3s-2.3-1-2.3-2.3c0-1.2 1-2.2 2.3-2.2zm0 3.5c.6 0 1.2-.6 1.2-1.3 0-.7-.5-1.2-1.2-1.2s-1.2.5-1.2 1.2c0 .8.6 1.3 1.2 1.3zM50.4 51.7h1.1l-.1 3h-.9l-.1-3zm.1 3.4h1v.9h-1v-.9z"/></g></svg>